<?xml version="1.0" encoding="UTF-8" standalone="no"?>
<svg
   xmlns:dc="http://purl.org/dc/elements/1.1/"
   xmlns:cc="http://creativecommons.org/ns#"
   xmlns:rdf="http://www.w3.org/1999/02/22-rdf-syntax-ns#"
   xmlns:svg="http://www.w3.org/2000/svg"
   xmlns="http://www.w3.org/2000/svg"
   xmlns:xlink="http://www.w3.org/1999/xlink"
   xmlns:sodipodi="http://sodipodi.sourceforge.net/DTD/sodipodi-0.dtd"
   xmlns:inkscape="http://www.inkscape.org/namespaces/inkscape"
   width="108"
   height="108"
   viewBox="0 0 108 108"
   version="1.1"
   id="svg4"
   sodipodi:docname="foreground_white.svg"
   inkscape:version="0.92.4 (5da689c313, 2019-01-14)">
  <metadata
     id="metadata10">
    <rdf:RDF>
      <cc:Work
         rdf:about="">
        <dc:format>image/svg+xml</dc:format>
        <dc:type
           rdf:resource="http://purl.org/dc/dcmitype/StillImage" />
        <dc:title />
      </cc:Work>
    </rdf:RDF>
  </metadata>
  <defs
     id="defs8" />
  <sodipodi:namedview
     pagecolor="#ffffff"
     bordercolor="#666666"
     borderopacity="1"
     objecttolerance="10"
     gridtolerance="10"
     guidetolerance="10"
     inkscape:pageopacity="0"
     inkscape:pageshadow="2"
     inkscape:window-width="956"
     inkscape:window-height="1053"
     id="namedview6"
     showgrid="false"
     inkscape:zoom="2.8284273"
     inkscape:cx="-7.0401721"
     inkscape:cy="17.112718"
     inkscape:window-x="962"
     inkscape:window-y="25"
     inkscape:window-maximized="1"
     inkscape:current-layer="svg4"
     scale-x="1" />
  <g
     id="layer7"
     inkscape:label="bg"
     style="display:none"
     transform="matrix(1.0666667,0,0,1.0666667,-1175.9615,-539.96862)">
    <rect
       transform="translate(-132.5822,958.04022)"
       style="color:#000000;clip-rule:nonzero;display:inline;overflow:visible;visibility:visible;opacity:1;isolation:auto;mix-blend-mode:normal;color-interpolation:sRGB;color-interpolation-filters:linearRGB;solid-color:#000000;solid-opacity:1;fill:#ffffff;fill-opacity:1;fill-rule:evenodd;stroke:none;stroke-width:3;stroke-linecap:butt;stroke-linejoin:round;stroke-miterlimit:4;stroke-dasharray:none;stroke-dashoffset:0;stroke-opacity:1;marker:none;color-rendering:auto;image-rendering:auto;shape-rendering:auto;text-rendering:auto;enable-background:accumulate"
       id="rect5389"
       width="1543.4283"
       height="483.7439"
       x="132.5822"
       y="-957.77832" />
  </g>
  <g
     id="layer5"
     inkscape:label="guide"
     style="display:none;opacity:0.51599995"
     transform="matrix(1.0666667,0,0,1.0666667,-1317.3825,481.94098)">
    <rect
       y="-957.77832"
       x="132.5822"
       height="483.7439"
       width="1543.4283"
       id="rect5350"
       style="color:#000000;clip-rule:nonzero;display:inline;overflow:visible;visibility:visible;opacity:1;isolation:auto;mix-blend-mode:normal;color-interpolation:sRGB;color-interpolation-filters:linearRGB;solid-color:#000000;solid-opacity:1;fill:#d4d4d4;fill-opacity:1;fill-rule:evenodd;stroke:none;stroke-width:3;stroke-linecap:butt;stroke-linejoin:round;stroke-miterlimit:4;stroke-dasharray:none;stroke-dashoffset:0;stroke-opacity:1;marker:none;color-rendering:auto;image-rendering:auto;shape-rendering:auto;text-rendering:auto;enable-background:accumulate" />
    <rect
       style="color:#000000;clip-rule:nonzero;display:inline;overflow:visible;visibility:visible;opacity:1;isolation:auto;mix-blend-mode:normal;color-interpolation:sRGB;color-interpolation-filters:linearRGB;solid-color:#000000;solid-opacity:1;fill:#9b9b9b;fill-opacity:1;fill-rule:evenodd;stroke:none;stroke-width:3;stroke-linecap:butt;stroke-linejoin:round;stroke-miterlimit:4;stroke-dasharray:none;stroke-dashoffset:0;stroke-opacity:1;marker:none;color-rendering:auto;image-rendering:auto;shape-rendering:auto;text-rendering:auto;enable-background:accumulate"
       id="rect5346"
       width="1496.443"
       height="435.68069"
       x="155.77646"
       y="-933.38721"
       inkscape:export-xdpi="17.971878"
       inkscape:export-ydpi="17.971878" />
    <rect
       y="-851.65918"
       x="159.02695"
       height="272.58423"
       width="1492.5731"
       id="rect5348"
       style="color:#000000;clip-rule:nonzero;display:inline;overflow:visible;visibility:visible;opacity:1;isolation:auto;mix-blend-mode:normal;color-interpolation:sRGB;color-interpolation-filters:linearRGB;solid-color:#000000;solid-opacity:1;fill:#848484;fill-opacity:1;fill-rule:evenodd;stroke:none;stroke-width:3;stroke-linecap:butt;stroke-linejoin:round;stroke-miterlimit:4;stroke-dasharray:none;stroke-dashoffset:0;stroke-opacity:1;marker:none;color-rendering:auto;image-rendering:auto;shape-rendering:auto;text-rendering:auto;enable-background:accumulate" />
  </g>
  <g
     id="layer6"
     inkscape:label="logo-guide"
     style="display:none"
     transform="matrix(1.0666667,0,0,1.0666667,-1317.3825,481.94098)">
    <rect
       y="-958.02759"
       x="132.65129"
       height="484.30399"
       width="550.41602"
       id="rect5379"
       style="color:#000000;clip-rule:nonzero;display:inline;overflow:visible;visibility:visible;opacity:1;isolation:auto;mix-blend-mode:normal;color-interpolation:sRGB;color-interpolation-filters:linearRGB;solid-color:#000000;solid-opacity:1;fill:#5c201e;fill-opacity:1;fill-rule:evenodd;stroke:none;stroke-width:3;stroke-linecap:butt;stroke-linejoin:round;stroke-miterlimit:4;stroke-dasharray:none;stroke-dashoffset:0;stroke-opacity:1;marker:none;color-rendering:auto;image-rendering:auto;shape-rendering:auto;text-rendering:auto;enable-background:accumulate"
       inkscape:export-filename="/home/tim/dev/nix/homepage/logo/nix-wiki.png"
       inkscape:export-xdpi="22.07"
       inkscape:export-ydpi="22.07" />
    <rect
       style="color:#000000;clip-rule:nonzero;display:inline;overflow:visible;visibility:visible;opacity:1;isolation:auto;mix-blend-mode:normal;color-interpolation:sRGB;color-interpolation-filters:linearRGB;solid-color:#000000;solid-opacity:1;fill:#c24a46;fill-opacity:1;fill-rule:evenodd;stroke:none;stroke-width:3;stroke-linecap:butt;stroke-linejoin:round;stroke-miterlimit:4;stroke-dasharray:none;stroke-dashoffset:0;stroke-opacity:1;marker:none;color-rendering:auto;image-rendering:auto;shape-rendering:auto;text-rendering:auto;enable-background:accumulate"
       id="rect5372"
       width="501.94415"
       height="434.30405"
       x="156.12303"
       y="-933.02759"
       inkscape:export-filename="/home/tim/dev/nix/homepage/logo/nixos-logo-only-hires-print.png"
       inkscape:export-xdpi="212.2"
       inkscape:export-ydpi="212.2" />
    <rect
       style="color:#000000;clip-rule:nonzero;display:inline;overflow:visible;visibility:visible;opacity:1;isolation:auto;mix-blend-mode:normal;color-interpolation:sRGB;color-interpolation-filters:linearRGB;solid-color:#000000;solid-opacity:1;fill:#d98d8a;fill-opacity:1;fill-rule:evenodd;stroke:none;stroke-width:3;stroke-linecap:butt;stroke-linejoin:round;stroke-miterlimit:4;stroke-dasharray:none;stroke-dashoffset:0;stroke-opacity:1;marker:none;color-rendering:auto;image-rendering:auto;shape-rendering:auto;text-rendering:auto;enable-background:accumulate"
       id="rect5381"
       width="24.939611"
       height="24.939611"
       x="658.02826"
       y="-958.04022" />
  </g>
  <g
     id="g900"
     style="fill:#ffffff"
     transform="matrix(3.1750952,0,0,3.1750952,15.898857,17.31655)">
    <g
       style="fill:#ffffff"
       transform="matrix(1.7774924,0,0,1.771065,0.4752218,-3.7523036)"
       id="g1602">
      <path
         style="opacity:1;fill:#ffffff;fill-opacity:1;fill-rule:evenodd;stroke:none;stroke-width:0.05438897;stroke-linecap:butt;stroke-linejoin:round;stroke-miterlimit:4;stroke-dasharray:none;stroke-opacity:1"
         d="m 5.6926409,11.606423 4.3696361,2.21e-4 -0.4938306,0.898962 -1.1721158,-0.0033 0.5820849,1.043106 -0.2495892,0.444153 -0.5100097,5.79e-4 -0.8277726,-1.485206 -1.1923407,-0.0025 z"
         id="use3445-0"
         inkscape:connector-curvature="0"
         sodipodi:nodetypes="cccccccccc" />
      <path
         style="opacity:1;fill:#ffffff;fill-opacity:1;fill-rule:evenodd;stroke:none;stroke-width:0.05438897;stroke-linecap:butt;stroke-linejoin:round;stroke-miterlimit:4;stroke-dasharray:none;stroke-opacity:1"
         d="M 5.5250167,8.4956958 3.3400127,12.387096 2.8298691,11.497819 3.4187406,10.455627 2.2492487,10.452467 1.9999999,10.008111 2.2545179,9.5536172 3.9191671,9.5590223 4.5174322,8.4983916 Z"
         id="use3439-6"
         inkscape:connector-curvature="0"
         sodipodi:nodetypes="cccccccccc" />
      <path
         style="opacity:1;fill:#ffffff;fill-opacity:1;fill-rule:evenodd;stroke:none;stroke-width:0.05438897;stroke-linecap:butt;stroke-linejoin:round;stroke-miterlimit:4;stroke-dasharray:none;stroke-opacity:1"
         d="M 8.2359235,9.9013059 6.051291,6.0096854 7.0552657,6.0000004 7.6385098,7.0455334 8.2259169,6.0055874 8.7247548,6.0057897 8.9802466,6.4597049 8.14337,7.9395053 8.7374456,9.0026235 Z"
         id="use3449-5"
         inkscape:connector-curvature="0"
         sodipodi:nodetypes="cccccccccc" />
      <path
         sodipodi:nodetypes="cccccccccc"
         inkscape:connector-curvature="0"
         id="path4260-0"
         d="M 4.7364967,10.098695 6.9211291,13.990315 5.9171544,14 5.3339103,12.954467 4.7465032,13.994413 4.2476653,13.994211 3.9921735,13.540296 4.8290501,12.060495 4.2349745,10.997379 Z"
         style="color:#000000;clip-rule:nonzero;display:inline;overflow:visible;visibility:visible;opacity:1;isolation:auto;mix-blend-mode:normal;color-interpolation:sRGB;color-interpolation-filters:linearRGB;solid-color:#000000;solid-opacity:1;fill:#ffffff;fill-opacity:1;fill-rule:evenodd;stroke:none;stroke-width:0.05438897;stroke-linecap:butt;stroke-linejoin:round;stroke-miterlimit:4;stroke-dasharray:none;stroke-dashoffset:0;stroke-opacity:1;color-rendering:auto;image-rendering:auto;shape-rendering:auto;text-rendering:auto;enable-background:accumulate" />
      <use
         style="display:inline;fill:#ffffff"
         x="0"
         y="0"
         xlink:href="#path4260-0"
         id="use4354-5"
         transform="matrix(-0.5,0.89057983,-0.84214798,-0.5,18.1436,9.2157593)"
         width="100%"
         height="100%" />
      <use
         style="display:inline;fill:#ffffff"
         x="0"
         y="0"
         xlink:href="#path4260-0"
         id="use4362-2"
         transform="matrix(-0.5,-0.89057983,0.84214798,-0.5,1.3060933,20.771283)"
         width="100%"
         height="100%" />
    </g>
    <path
       inkscape:connector-curvature="0"
       style="fill:#ffffff;stroke-width:0.02729056"
       d="m 13.89556,3.2646985 0.641082,-0.9895556 c 0.04121,-0.062413 0.02295,-0.1477511 -0.04003,-0.1883864 -0.06239,-0.04121 -0.147751,-0.024124 -0.188386,0.040036 L 13.643613,3.1505148 C 13.145016,2.9462451 12.588124,2.8314611 12.000012,2.8314611 c -0.588684,0 -1.144402,0.114784 -1.644173,0.3190537 L 9.6924055,2.1267918 C 9.6517955,2.0626318 9.5658316,2.0455478 9.5028454,2.0867568 9.4398554,2.1273658 9.4216014,2.21273 9.4628074,2.2751432 L 10.104463,3.2646987 C 8.9477005,3.8316052 8.1677092,4.9000579 8.1677092,6.1256764 c 0,0.075349 0.00472,0.1495247 0.01119,0.2231001 h 7.6428018 c 0.0065,-0.073575 0.01059,-0.1477511 0.01059,-0.2231001 2.7e-5,-1.2256185 -0.780566,-2.2940712 -1.936729,-2.8609779 z m -3.667468,1.7719206 c -0.203096,0 -0.3679315,-0.1636607 -0.3679315,-0.3673305 0,-0.203669 0.1648355,-0.3667579 0.3679315,-0.3667579 0.20427,0 0.36793,0.1630616 0.36793,0.3667579 0,0.2036964 -0.164833,0.3673305 -0.36793,0.3673305 z m 3.543269,0 c -0.203097,0 -0.367931,-0.1636607 -0.367931,-0.3673305 0,-0.203669 0.164834,-0.3667579 0.367931,-0.3667579 0.20367,0 0.367331,0.1630616 0.367331,0.3667579 0,0.2036698 -0.163661,0.3673305 -0.367331,0.3673305 z"
       id="path1667" />
  </g>
  <g
     id="g1675"
     transform="matrix(0.07353287,0,0,0.07353287,52.716519,71.032431)" />
  <g
     id="g1677"
     transform="matrix(0.07353287,0,0,0.07353287,52.716519,71.032431)" />
  <g
     id="g1679"
     transform="matrix(0.07353287,0,0,0.07353287,52.716519,71.032431)" />
  <g
     id="g1681"
     transform="matrix(0.07353287,0,0,0.07353287,52.716519,71.032431)" />
  <g
     id="g1683"
     transform="matrix(0.07353287,0,0,0.07353287,52.716519,71.032431)" />
  <g
     id="g1685"
     transform="matrix(0.07353287,0,0,0.07353287,52.716519,71.032431)" />
  <g
     id="g1687"
     transform="matrix(0.07353287,0,0,0.07353287,52.716519,71.032431)" />
  <g
     id="g1689"
     transform="matrix(0.07353287,0,0,0.07353287,52.716519,71.032431)" />
  <g
     id="g1691"
     transform="matrix(0.07353287,0,0,0.07353287,52.716519,71.032431)" />
  <g
     id="g1693"
     transform="matrix(0.07353287,0,0,0.07353287,52.716519,71.032431)" />
  <g
     id="g1695"
     transform="matrix(0.07353287,0,0,0.07353287,52.716519,71.032431)" />
  <g
     id="g1697"
     transform="matrix(0.07353287,0,0,0.07353287,52.716519,71.032431)" />
  <g
     id="g1699"
     transform="matrix(0.07353287,0,0,0.07353287,52.716519,71.032431)" />
  <g
     id="g1701"
     transform="matrix(0.07353287,0,0,0.07353287,52.716519,71.032431)" />
  <g
     id="g1703"
     transform="matrix(0.07353287,0,0,0.07353287,52.716519,71.032431)" />
</svg>
